<svg xmlns="http://www.w3.org/2000/svg" width="12" height="12.423" viewBox="0 0 12 12.423"><g transform="translate(-1033.754 -2642.148)"><g transform="translate(1040.128 2643.794)"><path d="M1044.617,2653.279a5.272,5.272,0,0,0,1.534-3.735v0a5.275,5.275,0,0,0-1.534-3.734l.823-.83a6.443,6.443,0,0,1,1.875,4.564v0a6.443,6.443,0,0,1-1.875,4.565Z" transform="translate(-1044.617 -2644.978)" fill="#393d41"/></g><g transform="translate(1042.379 2642.148)"><path d="M1048.445,2642.976l.823-.828a8.835,8.835,0,0,1,0,12.423l-.823-.828A7.657,7.657,0,0,0,1048.445,2642.976Z" transform="translate(-1048.445 -2642.148)" fill="#393d41"/></g><g transform="translate(1037.88 2645.48)"><path d="M1040.79,2648.628l.823-.823a4.078,4.078,0,0,1,0,5.76l-.823-.823A2.916,2.916,0,0,0,1040.79,2648.628Z" transform="translate(-1040.79 -2647.805)" fill="#393d41"/></g><g transform="translate(1040.128 2643.794)"><path d="M1044.617,2653.279a5.275,5.275,0,0,0,1.534-3.734h0a5.272,5.272,0,0,0-1.534-3.735l.823-.83a6.442,6.442,0,0,1,1.875,4.565v0a6.443,6.443,0,0,1-1.875,4.564Z" transform="translate(-1044.617 -2644.978)" fill="#393d41"/></g><g transform="translate(1037.88 2645.48)"><path d="M1040.79,2652.742a2.916,2.916,0,0,0,0-4.115l.823-.823a4.078,4.078,0,0,1,0,5.76Z" transform="translate(-1040.79 -2647.805)" fill="#393d41"/></g><circle cx="1.455" cy="1.455" r="1.455" transform="translate(1033.754 2646.905)" fill="#393d41"/></g></svg>