<svg xmlns="http://www.w3.org/2000/svg" width="12" height="12.541" viewBox="0 0 12 12.541"><g transform="translate(-1033.5 -722.531)"><path d="M1052.522,726h-2.241a.28.28,0,1,0,0,.56h2.241a.28.28,0,1,0,0-.56Z" transform="translate(-7.302 -1.525)" fill="#393d41"/><path d="M1052.141,729.279l-2.224-1.244a.28.28,0,1,0-.273.488l2.224,1.244a.275.275,0,0,0,.137.036.28.28,0,0,0,.137-.525Z" transform="translate(-7.082 -2.418)" fill="#393d41"/><path d="M1049.878,723.9l2.206-.823a.28.28,0,1,0-.2-.525l-2.207.823a.281.281,0,1,0,.2.526Z" transform="translate(-7.082)" fill="#393d41"/><path d="M1041.346,724.56h-.28v-.28a.28.28,0,0,0-.28-.28h-5.744a.281.281,0,0,0-.256.165l-1.261,2.8a.28.28,0,0,0,.255.4h5.372a2.046,2.046,0,0,0,1.657,2.238.26.26,0,0,0,.047,0,.28.28,0,0,0,.045-.557,1.509,1.509,0,0,1-1.185-1.685h.3a.277.277,0,0,0,.206-.091l.771-.841a.28.28,0,0,0,.074-.189v-.56h.28a.28.28,0,0,0,.28-.28v-.56A.28.28,0,0,0,1041.346,724.56Z" transform="translate(0 -0.646)" fill="#393d41"/><path d="M1038.736,731h-2.969l-1.69,6.177a1.4,1.4,0,0,0,1.375,1.668h4.287a1.4,1.4,0,0,0,1.306-1.909Z" transform="translate(-0.242 -3.774)" fill="#393d41"/></g></svg>