<svg xmlns="http://www.w3.org/2000/svg" width="11.996" height="11.996" viewBox="0 0 11.996 11.996"><g transform="translate(287.271 -1441)"><path d="M-275.525,1442h-1.749v-.75a.25.25,0,0,0-.25-.25h-1.5a.25.25,0,0,0-.25.25v.75h-4v-.75a.25.25,0,0,0-.25-.25h-1.5a.25.25,0,0,0-.25.25v.75h-1.749a.25.25,0,0,0-.25.25v2.249h12v-2.249A.25.25,0,0,0-275.525,1442Zm-8.247,1h-1v-1.5h1Zm6,0h-1v-1.5h1Z" fill="#393d41"/><path d="M-287.271,1449v7.747a.25.25,0,0,0,.25.25h11.5a.25.25,0,0,0,.25-.25V1449Zm9.362,2.091-3.76,4.01a.5.5,0,0,1-.706,0l-1.749-1.75a.5.5,0,0,1,0-.707.5.5,0,0,1,.706,0l1.385,1.385,3.4-3.622a.5.5,0,0,1,.707-.023A.5.5,0,0,1-277.909,1451.091Z" transform="translate(0 -4.001)" fill="#393d41"/></g></svg>