<svg xmlns="http://www.w3.org/2000/svg" width="12" height="13.896" viewBox="0 0 12 13.896"><path d="M903.222,247.148a.645.645,0,0,0-.869.207l-1.722,2.71a.316.316,0,0,1-.577-.226l1.022-5.572a.632.632,0,1,0-1.233-.275l-1.065,4.71a.316.316,0,0,1-.624-.069v-6a.631.631,0,1,0-1.263,0v6a.316.316,0,0,1-.625.066l-1.063-4.939a.64.64,0,0,0-.751-.484.63.63,0,0,0-.484.749l1.026,7.086a.317.317,0,0,1-.521.284l-1.887-1.647a.632.632,0,1,0-.858.928c3.334,4.431,3.569,5.218,5.164,5.218H899.1c1.723,0,2.526-1.133,2.526-3.567,0-1.172.363-1.614,1.791-4.3A.63.63,0,0,0,903.222,247.148Z" transform="translate(-891.522 -242)" fill="#393d41"/></svg>