<svg xmlns="http://www.w3.org/2000/svg" width="10" height="13.333" viewBox="0 0 10 13.333"><path d="M805.918,1876.415l-3.333-3.333a.277.277,0,0,0-.2-.081h-6.111a.278.278,0,0,0-.278.278v12.778a.278.278,0,0,0,.278.278h9.444a.278.278,0,0,0,.278-.278v-9.444A.278.278,0,0,0,805.918,1876.415Zm-7.141,2.419a.278.278,0,0,1,.278-.278h.833v-.833a.278.278,0,0,1,.278-.278h1.667a.278.278,0,0,1,.278.278v.833h.833a.278.278,0,0,1,.278.278v1.667a.278.278,0,0,1-.278.278h-.833v.833a.278.278,0,0,1-.278.278h-1.667a.278.278,0,0,1-.278-.278v-.833h-.833a.278.278,0,0,1-.278-.278Zm5.278,5.833h-6.111a.278.278,0,1,1,0-.556h6.111a.278.278,0,1,1,0,.556Zm0-1.111h-6.111a.278.278,0,1,1,0-.555h6.111a.278.278,0,1,1,0,.555Zm-1.667-6.667a.278.278,0,0,1-.278-.278v-2.893l3.171,3.17Z" transform="translate(-796 -1873)" fill="#393d41"/></svg>