<svg xmlns="http://www.w3.org/2000/svg" width="12" height="12" viewBox="0 0 12 12"><g transform="translate(-97 -2785)"><path d="M104.9,2789a3.9,3.9,0,1,0,3.9,3.9A3.9,3.9,0,0,0,104.9,2789Z" transform="translate(-1.898 -1.898)" fill="#393d41"/><path d="M108.263,2805a.263.263,0,0,0-.263.263v1.051a.263.263,0,1,0,.526,0v-1.051A.263.263,0,0,0,108.263,2805Z" transform="translate(-5.263 -9.577)" fill="#393d41"/><path d="M114.949,2802.577a.263.263,0,1,0-.372.372l.788.789a.263.263,0,0,0,.372-.372Z" transform="translate(-8.391 -8.391)" fill="#393d41"/><path d="M118.314,2796h-1.051a.263.263,0,0,0,0,.526h1.051a.263.263,0,0,0,0-.526Z" transform="translate(-9.577 -5.263)" fill="#393d41"/><path d="M114.949,2789.237l.788-.789a.263.263,0,0,0-.372-.372l-.788.788a.263.263,0,1,0,.372.372Z" transform="translate(-8.391 -1.423)" fill="#393d41"/><path d="M108.263,2786.577a.263.263,0,0,0,.263-.263v-1.051a.263.263,0,1,0-.526,0v1.051A.263.263,0,0,0,108.263,2786.577Z" transform="translate(-5.263)" fill="#393d41"/><path d="M100.865,2789.237a.263.263,0,0,0,.372-.372l-.788-.788a.263.263,0,0,0-.372.372Z" transform="translate(-1.423 -1.423)" fill="#393d41"/><path d="M98.314,2796H97.263a.263.263,0,0,0,0,.526h1.051a.263.263,0,0,0,0-.526Z" transform="translate(0 -5.263)" fill="#393d41"/><path d="M100.865,2802.577l-.788.789a.263.263,0,0,0,.372.372l.788-.789a.263.263,0,0,0-.372-.372Z" transform="translate(-1.423 -8.391)" fill="#393d41"/></g></svg>