<svg xmlns="http://www.w3.org/2000/svg" width="12" height="10" viewBox="0 0 12 10"><g transform="translate(-481 -2403)"><path d="M491.75,2404.5H489v-.5a1,1,0,0,0-1-1h-2a1,1,0,0,0-1,1v.5h-2.75a1.251,1.251,0,0,0-1.25,1.25v6a1.251,1.251,0,0,0,1.25,1.25h9.5a1.252,1.252,0,0,0,1.25-1.25v-6A1.252,1.252,0,0,0,491.75,2404.5Zm-3.25,6.25a1.755,1.755,0,0,1-1.434-.75H484.25a.249.249,0,0,1-.177-.073l-.75-.75a.249.249,0,0,1,0-.353l.75-.75a.25.25,0,0,1,.177-.073h2.816a1.749,1.749,0,1,1,1.434,2.75Zm-3-6.75a.5.5,0,0,1,.5-.5h2a.5.5,0,0,1,.5.5v.5h-3Z" transform="translate(0 0)" fill="#393d41"/><circle cx="0.5" cy="0.5" r="0.5" transform="translate(488 2408.5)" fill="#393d41"/></g></svg>