<svg xmlns="http://www.w3.org/2000/svg" xmlns:xlink="http://www.w3.org/1999/xlink" width="12" height="11.5" viewBox="0 0 12 11.5"><defs><clipPath id="a"><rect width="12" height="11.5" fill="none"/></clipPath></defs><g clip-path="url(#a)"><g transform="translate(-23.5 -115)"><path d="M-275.082,1483.565l-5.75-5.5a.249.249,0,0,0-.337,0l-5.75,5.5a.249.249,0,0,0-.065.275.249.249,0,0,0,.233.16h1.25v5.25a.25.25,0,0,0,.25.25h8.5a.25.25,0,0,0,.25-.25V1484h1.25a.249.249,0,0,0,.233-.16A.249.249,0,0,0-275.082,1483.565ZM-282.75,1482a.75.75,0,0,1,.75.75.75.75,0,0,1-.75.75.75.75,0,0,1-.75-.75A.75.75,0,0,1-282.75,1482Zm1.25,3.5c0,.411-.088.75-.5.75v2.25h-1.5v-2.25c-.413,0-.5-.338-.5-.75v-1.251a.25.25,0,0,1,.25-.25h2a.25.25,0,0,1,.25.25Zm2.25-3.5a.75.75,0,0,1,.75.75.75.75,0,0,1-.75.75.75.75,0,0,1-.75-.75A.75.75,0,0,1-279.25,1482Zm1.25,3.5c0,.411-.088.75-.5.75v2.25H-280v-2.25c-.412,0-.5-.338-.5-.75v-1.251a.25.25,0,0,1,.25-.25h2a.25.25,0,0,1,.25.25Z" transform="translate(310.5 -1363)" fill="#393d41"/></g></g></svg>