<svg viewBox="0 0 1402.53 328.48" xmlns="http://www.w3.org/2000/svg"><path d="m450 270.4a40 40 0 0 1 -40 40h-340a40 40 0 0 1 -40-40v-220a40 40 0 0 1 40-40h340a40 40 0 0 1 40 40z" fill="#1565c0"/><g fill="#FFFFFF"><path d="m151.88 110.4-26.29 78.32s-6.64-33.12-7.31-37.3c-15-34.1-37-32.19-37-32.19l26 101.17h31.6l43.71-110z"/><path d="m176.88 220.4h28.71l17.41-110h-29.09z"/><path d="m380.08 110.4h-30.2l-47.11 110h28.52l5.9-15.7h35.93l3.05 15.7h26.13zm-35 73.28 15.62-41.56 8.3 41.56z"/><path d="m263.67 142.47c0-6.05 5-10.58 19.3-10.58 9.26 0 19.88 6.75 19.88 6.75l4.69-23.08s-13.54-5.16-26.92-5.16c-30.19 0-45.78 14.42-45.78 32.7 0 33.08 39.81 28.55 39.81 45.5 0 2.93-2.31 9.65-18.91 9.65s-27.58-6.09-27.58-6.09l-5 22.19s10.67 6.05 31.18 6.05 49.17-15.39 49.17-37.54c.04-26.6-39.84-28.51-39.84-40.39z"/></g><path d="m122.11 169.85-9.65-47.5s-4.37-10.27-15.74-10.27h-44.38s56.66 16.72 69.77 57.77z" fill="#ffc107"/><path d="m576.6 308.75v-19.87a11.79 11.79 0 0 0 -11-12.57 10.73 10.73 0 0 0 -1.5 0 12.25 12.25 0 0 0 -11.1 5.62 11.62 11.62 0 0 0 -10.46-5.63 10.46 10.46 0 0 0 -9.27 4.7v-3.91h-6.87v31.66h7v-17.42a7.4 7.4 0 0 1 6.3-8.33 8.25 8.25 0 0 1 1.4-.06c4.57 0 6.89 3 6.89 8.34v17.62h7v-17.57a7.48 7.48 0 0 1 7.75-8.41c4.7 0 6.95 3 6.95 8.34v17.62zm102.87-31.66h-11.33v-9.6h-6.95v9.6h-6.29v6.29h6.42v14.62c0 7.35 2.85 11.72 11 11.72a16.15 16.15 0 0 0 8.61-2.45l-2-5.89a12.76 12.76 0 0 1 -6.1 1.79c-3.31 0-4.56-2.12-4.56-5.3v-14.49h11.25zm58.73-.79a9.34 9.34 0 0 0 -8.34 4.63v-3.84h-6.86v31.66h6.88v-17.75c0-5.23 2.26-8.14 6.63-8.14a10.94 10.94 0 0 1 4.3.79l2.19-6.65a14.61 14.61 0 0 0 -4.9-.86zm-88.8 3.31a23.6 23.6 0 0 0 -12.91-3.31c-8 0-13.24 3.84-13.24 10.13 0 5.17 3.84 8.34 10.92 9.34l3.31.46c3.78.53 5.57 1.52 5.57 3.31 0 2.45-2.52 3.84-7.22 3.84a16.82 16.82 0 0 1 -10.53-3.31l-3.3 5.37a22.82 22.82 0 0 0 13.71 4.1c9.13 0 14.43-4.3 14.43-10.33s-4.17-8.48-11.06-9.47l-3.31-.46c-3-.4-5.36-1-5.36-3.11s2.25-3.71 6-3.71a20.42 20.42 0 0 1 9.94 2.71zm184.45-3.31a9.34 9.34 0 0 0 -8.34 4.63v-3.84h-6.82v31.66h6.88v-17.75c0-5.23 2.26-8.14 6.63-8.14a10.94 10.94 0 0 1 4.3.79l2.12-6.62a14.61 14.61 0 0 0 -4.9-.86zm-88.73 16.55a16 16 0 0 0 15.39 16.57h1.5a16.58 16.58 0 0 0 11.39-3.78l-3.32-5.56a13.84 13.84 0 0 1 -8.27 2.85 10.16 10.16 0 0 1 0-20.26 13.9 13.9 0 0 1 8.27 2.84l3.32-5.56a16.57 16.57 0 0 0 -11.4-3.78 16 16 0 0 0 -16.87 15.06 14.81 14.81 0 0 0 0 1.49zm64.5 0v-15.76h-6.89v3.84a12 12 0 0 0 -9.93-4.63 16.56 16.56 0 1 0 0 33.11 12 12 0 0 0 9.93-4.64v3.84h6.89zm-25.63 0a9.51 9.51 0 1 1 0 .75c.01-.25.01-.5.01-.75zm-83.1-16.55a16.56 16.56 0 1 0 .46 33.11 19.26 19.26 0 0 0 13.15-4.31l-3.32-5.1a15.09 15.09 0 0 1 -9.2 3.31 8.79 8.79 0 0 1 -9.47-7.75h23.49v-2.65c0-9.93-6.16-16.55-15-16.55zm0 6.16a7.84 7.84 0 0 1 8 7.68h-16.54a8.13 8.13 0 0 1 8.4-7.68zm172.53 10.46v-28.54h-6.63v16.55a12 12 0 0 0 -9.93-4.63 16.56 16.56 0 0 0 0 33.11 12 12 0 0 0 9.93-4.64v3.84h6.63zm11.49 11.22a3.35 3.35 0 0 1 1.25.24 3.18 3.18 0 0 1 1.73 1.65 3.16 3.16 0 0 1 0 2.45 3.24 3.24 0 0 1 -1.73 1.66 3.15 3.15 0 0 1 -1.25.26 3.3 3.3 0 0 1 -3-1.92 3.07 3.07 0 0 1 .69-3.44 3.31 3.31 0 0 1 2.38-.9zm0 5.6a2.46 2.46 0 0 0 1-.2 2.67 2.67 0 0 0 .76-.53 2.45 2.45 0 0 0 0-3.31 2.67 2.67 0 0 0 -.76-.53 2.46 2.46 0 0 0 -1-.2 2.43 2.43 0 0 0 -1 .2 2.38 2.38 0 0 0 -.8.53 2.45 2.45 0 0 0 0 3.31 2.38 2.38 0 0 0 .8.53 2.52 2.52 0 0 0 1 .2zm.19-3.94a1.31 1.31 0 0 1 .86.26.82.82 0 0 1 .3.7.8.8 0 0 1 -.23.6 1.19 1.19 0 0 1 -.69.29l1 1.1h-.77l-.89-1.1h-.3v1.1h-.63v-2.92zm-.72.56v.8h.72a.68.68 0 0 0 .4 0 .32.32 0 0 0 0-.3.32.32 0 0 0 0-.3.68.68 0 0 0 -.4 0zm-36.38-13.44a9.5 9.5 0 1 1 0 .75 6.26 6.26 0 0 1 0-.75zm-232.53 0v-15.83h-6.88v3.84a12 12 0 0 0 -9.94-4.63 16.56 16.56 0 0 0 0 33.11 12 12 0 0 0 9.94-4.64v3.84h6.88zm-25.62 0a8.81 8.81 0 1 1 -.09.82c0-.28 0-.55 0-.82z" fill="#231f20"/><path d="m647.12 35.9h104.29v187.43h-104.29z" fill="#FF8700"/><path d="m653.74 129.63a119 119 0 0 1 45.53-93.73 119.19 119.19 0 1 0 0 187.43 119 119 0 0 1 -45.53-93.7z" fill="#eb001b"/><path d="m892.12 129.63a119.19 119.19 0 0 1 -192.85 93.7 119.2 119.2 0 0 0 0-187.43 119.18 119.18 0 0 1 192.85 93.7z" fill="#f79e1b"/><path d="m880.73 203.46v-3.84h1.56v-.79h-3.94v.79h1.65v3.84zm7.65 0v-4.63h-1.19l-1.39 3.31-1.39-3.31h-1.06v4.63h.86v-3.46l1.29 3h.9l1.29-3v3.51z" fill="#f79e1b"/><path d="m1368.54 270.4a40 40 0 0 1 -40 40h-340a40 40 0 0 1 -40-40v-220a40 40 0 0 1 40-40h340a40 40 0 0 1 40 40z" fill="#1976d2"/><path d="m1141.08 120.4-21.08 46.84-21-46.84h-27v67.27l-30-67.27h-22.73l-30.67 69.81h18.17l6.68-15.59h34.33l6.84 15.59h34.65v-51.84l23 51.84h15.62l23.52-50.94v50.94h17.22v-69.81zm-121.17 39.14 10.23-24.37 10.67 24.37z" fill="#FFFFFF"/><path d="m1297.37 154.54 31.17-33.94h-22.18l-19.93 21.64-19.29-21.84h-68.6v69.81h66.37l20.9-23.09 20.39 23.28h22.11zm-41.56 21h-40.08v-13.77h38.36v-13.24h-38.36v-13.09l42.3.12 17 19z" fill="#FFFFFF"/></svg>