<?xml version="1.0" encoding="UTF-8"?>
<svg width="27px" height="23px" viewBox="0 0 27 23" version="1.1" xmlns="http://www.w3.org/2000/svg" xmlns:xlink="http://www.w3.org/1999/xlink">
    <!-- Generator: Sketch 52.5 (67469) - http://www.bohemiancoding.com/sketch -->
    <title>Fill 1</title>
    <desc>Created with Sketch.</desc>
    <g id="PROPERTIES-LISTING" stroke="none" stroke-width="1" fill="none" fill-rule="evenodd">
        <g id="Properties-Expanded" transform="translate(-323.000000, -945.000000)" fill="#FFFFFF">
            <g id="LISTING-1" transform="translate(32.000000, 574.000000)">
                <g id="Bitmap" transform="translate(20.000000, 141.000000)">
                    <path d="M284.499892,239.288686 C283.383999,239.288686 282.430786,239.678038 281.638743,240.456743 C280.846485,241.235448 280.450356,242.173202 280.450356,243.270006 C280.450356,244.365961 280.846485,245.303503 281.638743,246.082208 C282.430786,246.860913 283.383999,247.250265 284.499892,247.250265 C285.615785,247.250265 286.569861,246.860913 287.36212,246.082208 C288.154378,245.303503 288.550507,244.365961 288.550507,243.270006 C288.550507,242.173202 288.154378,241.235448 287.36212,240.456743 C286.569861,239.678038 285.615785,239.288686 284.499892,239.288686 M288.950736,247.644707 C287.718549,248.855602 286.23436,249.462109 284.499892,249.462109 C282.765425,249.462109 281.282098,248.855602 280.049049,247.644707 C278.816215,246.432752 278.200014,244.973953 278.200014,243.270006 C278.200014,241.56521 278.816863,240.107259 280.049049,238.895304 C281.282098,237.683349 282.765425,237.076842 284.499892,237.076842 C286.23436,237.076842 287.717686,237.683349 288.950736,238.895304 C290.183785,240.106411 290.799986,241.56521 290.799986,243.270006 C290.799986,244.973953 290.183785,246.432752 288.950736,247.644707 M296.945597,234.575316 C296.242662,233.884406 295.393876,233.538951 294.400316,233.538951 L291.250701,233.538951 L290.533526,231.659413 C290.35488,231.207926 290.029519,230.818573 289.555933,230.490508 C289.082347,230.164139 288.597542,230 288.100439,230 L280.900424,230 C280.403105,230 279.917653,230.164139 279.44493,230.490508 C278.971129,230.818573 278.64512,231.207926 278.467121,231.659413 L277.749946,233.538951 L274.600547,233.538951 C273.605909,233.538951 272.757985,233.884406 272.054403,234.575316 C271.351468,235.266013 271,236.100279 271,237.076842 L271,249.462109 C271,250.438672 271.351468,251.272938 272.054403,251.963847 C272.757985,252.654757 273.605909,253 274.600547,253 L294.400316,253 C295.393876,253 296.242662,252.654757 296.945597,251.963847 C297.648532,251.272938 298,250.438672 298,249.462109 L298,237.076842 C298,236.100279 297.648532,235.266013 296.945597,234.575316" id="Fill-1"></path>
                </g>
            </g>
        </g>
    </g>
</svg>