<?xml version="1.0" encoding="UTF-8"?>
<svg width="20px" height="15px" viewBox="0 0 20 15" version="1.1" xmlns="http://www.w3.org/2000/svg" xmlns:xlink="http://www.w3.org/1999/xlink">
    <!-- Generator: Sketch 52.5 (67469) - http://www.bohemiancoding.com/sketch -->
    <title>Fill 1</title>
    <desc>Created with Sketch.</desc>
    <g id="Symbols" stroke="none" stroke-width="1" fill="none" fill-rule="evenodd">
        <g id="AvailabilityDates" transform="translate(-13.000000, -33.000000)" fill="#FFFFFF">
            <path d="M31.8703678,35.0706678 L30.1841923,33.3535233 C29.9528949,33.1176937 29.6717118,33 29.3411317,33 C29.0103346,33 28.7292058,33.1176937 28.4980712,33.3535233 L20.3646073,41.6489091 L16.7194329,37.9241726 C16.4880811,37.6885642 16.206898,37.5706494 15.8765351,37.5706494 C15.5457379,37.5706494 15.2648263,37.6885642 15.0332574,37.9241726 L13.3471362,39.6413172 C13.1157844,39.8771468 13,40.1632269 13,40.5001106 C13,40.8365519 13.1157844,41.1231297 13.3471362,41.3586828 L19.5215467,47.646532 C19.7528442,47.8823063 20.0340273,48 20.3646073,48 C20.6951874,48 20.9761533,47.8820852 21.2076679,47.646532 L31.8703678,36.7878676 C32.1015024,36.5522592 32.2174497,36.2659026 32.2174497,35.9292953 C32.2176669,35.5926329 32.1015024,35.3062763 31.8703678,35.0706678 Z" id="Fill-1"></path>
        </g>
    </g>
</svg>