<?xml version="1.0" encoding="UTF-8"?>
<svg width="27px" height="27px" viewBox="0 0 27 27" version="1.1" xmlns="http://www.w3.org/2000/svg" xmlns:xlink="http://www.w3.org/1999/xlink">
    <!-- Generator: Sketch 53.2 (72643) - https://sketchapp.com -->
    <title>Fill 1</title>
    <desc>Created with Sketch.</desc>
    <g id="Summary" stroke="none" stroke-width="1" fill="none" fill-rule="evenodd">
        <g id="Summary-Expanded" transform="translate(-163.000000, -1923.000000)" fill="#112f41">
            <path d="M181.75,1933.66667 C181.75,1934.28 181.19,1934.77778 180.5,1934.77778 C179.81,1934.77778 179.25,1934.28 179.25,1933.66667 C179.25,1933.36 178.97,1933.11111 178.625,1933.11111 C178.28,1933.11111 178,1933.36 178,1933.66667 C178,1934.7 178.8,1935.56111 179.875,1935.81 L179.875,1936.44444 C179.875,1936.75111 180.155,1937 180.5,1937 C180.845,1937 181.125,1936.75111 181.125,1936.44444 L181.125,1935.81 C182.2,1935.56111 183,1934.7 183,1933.66667 C183,1932.44 181.87875,1931.44444 180.5,1931.44444 C179.81,1931.44444 179.25,1930.94667 179.25,1930.33333 C179.25,1929.72111 179.81,1929.22222 180.5,1929.22222 C181.19,1929.22222 181.75,1929.72111 181.75,1930.33333 C181.75,1930.64 182.03,1930.88889 182.375,1930.88889 C182.72,1930.88889 183,1930.64 183,1930.33333 C183,1929.3 182.2,1928.43889 181.125,1928.19 L181.125,1927.55556 C181.125,1927.24889 180.845,1927 180.5,1927 C180.155,1927 179.875,1927.24889 179.875,1927.55556 L179.875,1928.19 C178.8,1928.43889 178,1929.3 178,1930.33333 C178,1931.55889 179.12125,1932.55556 180.5,1932.55556 C181.19,1932.55556 181.75,1933.05444 181.75,1933.66667 L181.75,1933.66667 Z M172,1932 C172,1927.03762 176.037625,1923 181,1923 C185.962375,1923 190,1927.03762 190,1932 C190,1936.96238 185.962375,1941 181,1941 C176.037625,1941 172,1936.96238 172,1932 L172,1932 Z M186.573725,1941.16642 L186.573725,1941.16528 C186.572598,1941.163 186.570344,1941.163 186.568091,1941.16186 C186.342732,1940.93948 185.992299,1940.95088 185.777081,1941.16756 L183.530252,1943.45525 C183.311654,1943.67764 183.311654,1944.03915 183.532506,1944.26153 C183.753357,1944.48392 184.109424,1944.48278 184.329149,1944.25925 L185.59116,1942.974 C185.461578,1945.68022 183.268836,1947.85045 180.561148,1947.85958 C180.251279,1947.86072 179.998877,1948.11731 180.000004,1948.43207 C180.001131,1948.74683 180.253533,1949 180.563401,1949 L180.565655,1949 C183.907728,1948.98974 186.625557,1946.28693 186.732603,1942.93294 L188.039685,1944.24671 C188.260537,1944.47023 188.617731,1944.46795 188.836329,1944.24443 C189.056054,1944.02205 189.0538,1943.66053 188.834075,1943.43815 L186.573725,1941.16642 Z M166.413881,1931.82308 C166.639239,1932.058 166.999814,1932.05686 167.222919,1931.83221 L169.469748,1929.54458 C169.688346,1929.32221 169.688346,1928.9607 169.467494,1928.73833 C169.246643,1928.51709 168.889449,1928.51709 168.670851,1928.74061 L167.40884,1930.02583 C167.538422,1927.31968 169.731164,1925.14951 172.438852,1925.14039 C172.748721,1925.13925 173.001123,1924.88266 172.999996,1924.56791 C172.998869,1924.25317 172.746467,1924 172.436599,1924 L172.434345,1924 C169.145231,1924.01026 166.38233,1926.62062 166.276412,1930.076 L164.960315,1928.75315 C164.739463,1928.52963 164.382269,1928.53077 164.163671,1928.75543 C163.943946,1928.97781 163.9462,1929.33931 164.165925,1929.56169 L166.413881,1931.82308 Z M181,1942.088 C180.442973,1946.54055 176.640952,1950 172.038981,1950 C167.055113,1950 163,1945.94514 163,1940.96159 C163,1936.3599 166.45967,1932.55812 170.913628,1932 C170.927186,1933.76814 171.397213,1935.42782 172.205072,1936.87283 C170.739627,1937.19257 169.539702,1938.22408 168.986065,1939.58775 L168.084427,1939.58775 C167.772582,1939.58775 167.51949,1939.84082 167.51949,1940.15265 C167.51949,1940.4656 167.772582,1940.71755 168.084427,1940.71755 L168.706986,1940.71755 C168.629025,1941.31183 168.627895,1941.24969 168.706986,1941.84735 L168.084427,1941.84735 C167.772582,1941.84735 167.51949,1942.10043 167.51949,1942.41225 C167.51949,1942.72521 167.772582,1942.97715 168.084427,1942.97715 L168.986065,1942.97715 C169.658339,1944.63118 171.276317,1945.80166 173.168853,1945.80166 C173.480698,1945.80166 173.733789,1945.54971 173.733789,1945.23676 C173.733789,1944.92493 173.480698,1944.67186 173.168853,1944.67186 C171.920344,1944.67186 170.837926,1943.98607 170.250392,1942.97715 L172.603917,1942.97715 C172.915762,1942.97715 173.168853,1942.72521 173.168853,1942.41225 C173.168853,1942.10043 172.915762,1941.84735 172.603917,1941.84735 L169.836859,1941.84735 C169.758898,1941.40221 169.761157,1941.15478 169.836859,1940.71755 L172.603917,1940.71755 C172.915762,1940.71755 173.168853,1940.4656 173.168853,1940.15265 C173.168853,1939.84082 172.915762,1939.58775 172.603917,1939.58775 L170.250392,1939.58775 C170.792731,1938.65679 171.759902,1938.01619 172.889775,1937.92242 C174.725818,1940.42154 177.670266,1942.06201 181,1942.088 L181,1942.088 Z" id="Fill-1"></path>
        </g>
    </g>
</svg>