<?xml version="1.0" encoding="UTF-8"?>
<svg width="21px" height="25px" viewBox="0 0 21 25" version="1.1" xmlns="http://www.w3.org/2000/svg" xmlns:xlink="http://www.w3.org/1999/xlink">
    <!-- Generator: Sketch 53 (72520) - https://sketchapp.com -->
    <title>Group 330</title>
    <desc>Created with Sketch.</desc>
    <g id="Availability" stroke="none" stroke-width="1" fill="none" fill-rule="evenodd">
        <g id="Filtered" transform="translate(-179.000000, -1315.000000)" fill="#112f41">
            <g id="Group-330" transform="translate(179.000000, 1315.000000)">
                <path d="M0.509259259,14.4444444 L1.04194444,14.4444444 L12.2222222,14.4444444 L12.2222222,11.1111111 L0.509259259,11.1111111 C0.228148148,11.1111111 0,11.36 0,11.6666667 L0,13.8888889 C0,14.1955556 0.228148148,14.4444444 0.509259259,14.4444444" id="Fill-1517"></path>
                <path d="M16.9444444,2.57936508 C17.7976984,2.57936508 18.4920635,3.27373016 18.4920635,4.12698413 C18.4920635,4.9802381 17.7976984,5.67460317 16.9444444,5.67460317 C16.0911905,5.67460317 15.3968254,4.9802381 15.3968254,4.12698413 C15.3968254,3.27373016 16.0911905,2.57936508 16.9444444,2.57936508 L16.9444444,2.57936508 Z M13.3333333,14.4444444 L19.5238095,14.4444444 L19.5238095,14.3505556 C20.123254,14.1359524 20.5555556,13.5684921 20.5555556,12.8968254 L20.5555556,2.57936508 C20.5555556,1.15761905 19.3979365,0 17.9761905,0 L15.9126984,0 C14.4909524,0 13.3333333,1.15761905 13.3333333,2.57936508 L13.3333333,6.19047619 L13.3333333,11.3492063 L13.3333333,14.4444444 Z" id="Fill-1518"></path>
                <path d="M1.11111111,15.5555556 C1.64382366,17.7697531 3.47438031,19.4676543 5.73995126,19.7205556 L5.05297832,24.3987037 C5.03035346,24.547716 5.07457477,24.7030247 5.17124462,24.8184568 C5.26894286,24.9338889 5.41189083,25 5.56100921,25 L15.8450353,25 C16.1299028,25 16.3592366,24.7649383 16.3592366,24.4753086 L16.3592366,18.4581481 L19.2151107,16.5167901 C19.3580586,16.4191975 19.4444444,16.2565432 19.4444444,16.0802469 L19.4444444,15.5555556 L1.11111111,15.5555556 Z" id="Fill-1519"></path>
            </g>
        </g>
    </g>
</svg>