<?xml version="1.0" encoding="UTF-8"?>
<svg width="13px" height="25px" viewBox="0 0 13 25" version="1.1" xmlns="http://www.w3.org/2000/svg" xmlns:xlink="http://www.w3.org/1999/xlink">
    <!-- Generator: Sketch 53 (72520) - https://sketchapp.com -->
    <title>Group 268</title>
    <desc>Created with Sketch.</desc>
    <g id="Availability" stroke="none" stroke-width="1" fill="none" fill-rule="evenodd">
        <g id="Filtered" transform="translate(-184.000000, -1254.000000)" fill="#112f41">
            <g id="Group-268" transform="translate(184.000000, 1254.000000)">
                <path d="M6.38888889,8.33333333 C8.68680556,8.33333333 10.5555556,6.46458333 10.5555556,4.16666667 C10.5555556,1.86875 8.68680556,0 6.38888889,0 C4.09097222,0 2.22222222,1.86875 2.22222222,4.16666667 C2.22222222,6.46458333 4.09097222,8.33333333 6.38888889,8.33333333" id="Fill-3092"></path>
                <path d="M6.11111111,9.44444444 C2.68481481,9.44444444 0,13.772 0,19.2962963 C0,19.5825185 0.228148148,19.8148148 0.509259259,19.8148148 L3.56481481,19.8148148 L3.56481481,24.4814815 C3.56481481,24.7677037 3.79296296,25 4.07407407,25 L8.14814815,25 C8.42925926,25 8.65740741,24.7677037 8.65740741,24.4814815 L8.65740741,19.8148148 L11.712963,19.8148148 C11.9940741,19.8148148 12.2222222,19.5825185 12.2222222,19.2962963 C12.2222222,13.772 9.53740741,9.44444444 6.11111111,9.44444444" id="Fill-3093"></path>
            </g>
        </g>
    </g>
</svg>