<?xml version="1.0" encoding="UTF-8"?>
<svg width="25px" height="25px" viewBox="0 0 25 25" version="1.1" xmlns="http://www.w3.org/2000/svg" xmlns:xlink="http://www.w3.org/1999/xlink">
    <!-- Generator: Sketch 53 (72520) - https://sketchapp.com -->
    <title>Group 104</title>
    <desc>Created with Sketch.</desc>
    <g id="Availability" stroke="none" stroke-width="1" fill="none" fill-rule="evenodd">
        <g id="Filtered" transform="translate(-182.000000, -1135.000000)" fill="#112f41">
            <g id="Group-104" transform="translate(182.000000, 1135.000000)">
                <path d="M4.25365671,20.7469917 C3.44105513,19.9343647 3.44105513,18.6143668 4.25365671,17.800698 C5.06625828,16.9880711 6.38829854,16.9880711 7.20090011,17.7996562 C8.01350169,18.6143668 8.01350169,19.9343647 7.20090011,20.7469917 C6.38829854,21.5596187 5.06625828,21.5596187 4.25365671,20.7469917 M24.4791016,0 L21.3537109,0 C21.2151519,0 21.0828437,0.055216961 20.9859566,0.1521071 L11.0492978,10.0890764 C8.16872942,8.7794968 4.65162312,9.29832786 2.28466058,11.6643226 C-0.761553528,14.7116737 -0.761553528,19.6686982 2.28466058,22.7160494 C5.33191649,25.7613169 10.2887861,25.7613169 13.3350002,22.7160494 C15.7019627,20.3490129 16.2207776,16.8328385 14.9122807,13.95218 L17.9230737,10.9392093 L19.2701171,10.9392093 C19.557653,10.9392093 19.7910155,10.7058395 19.7910155,10.4182945 L19.7910155,9.07016721 L20.0066675,8.85555035 L21.3537109,8.85555035 C21.6412468,8.85555035 21.8746093,8.62218055 21.8746093,8.33463562 L21.8746093,6.98650831 L22.0902613,6.77189144 L23.4373047,6.77189144 C23.7248406,6.77189144 23.9582031,6.53852164 23.9582031,6.25097672 L23.9582031,4.9028494 L24.8478977,4.01416888 C24.9447848,3.91832057 25,3.7849664 25,3.64640308 L25,0.520914726 C25,0.233369797 24.7666375,0 24.4791016,0" id="Fill-2947"></path>
            </g>
        </g>
    </g>
</svg>