<?xml version="1.0" encoding="UTF-8"?>
<svg width="29px" height="25px" viewBox="0 0 29 25" version="1.1" xmlns="http://www.w3.org/2000/svg" xmlns:xlink="http://www.w3.org/1999/xlink">
    <!-- Generator: Sketch 53 (72520) - https://sketchapp.com -->
    <title>Group 293</title>
    <desc>Created with Sketch.</desc>
    <g id="Availability" stroke="none" stroke-width="1" fill="none" fill-rule="evenodd">
        <g id="Filtered" transform="translate(-176.000000, -1195.000000)" fill="#112f41">
            <g id="Group-293" transform="translate(176.000000, 1195.000000)">
                <path d="M6.54761905,8.33333333 L0.595238095,8.33333333 C0.266666667,8.33333333 0,8.6 0,8.92857143 L0,12.5 C0,13.7892857 0.4,14.5595238 1.19047619,14.8 L1.19047619,19.6428571 C1.19047619,19.9714286 1.45714286,20.2380952 1.78571429,20.2380952 L5.35714286,20.2380952 C5.68571429,20.2380952 5.95238095,19.9714286 5.95238095,19.6428571 L5.95238095,14.8 C6.74166667,14.5583333 7.14166667,13.7892857 7.14285714,12.5 L7.14285714,8.92857143 C7.14285714,8.6 6.87619048,8.33333333 6.54761905,8.33333333" id="Fill-1381"></path>
                <path d="M27.9761905,8.33333333 L22.0238095,8.33333333 C21.6952381,8.33333333 21.4285714,8.6 21.4285714,8.92857143 L21.4285714,12.5 C21.4285714,13.7892857 21.8285714,14.5595238 22.6190476,14.8 L22.6190476,19.6428571 C22.6190476,19.9714286 22.8857143,20.2380952 23.2142857,20.2380952 L26.7857143,20.2380952 C27.1142857,20.2380952 27.3809524,19.9714286 27.3809524,19.6428571 L27.3809524,14.8 C28.1702381,14.5583333 28.5702381,13.7892857 28.5714286,12.5 L28.5714286,8.92857143 C28.5714286,8.6 28.3047619,8.33333333 27.9761905,8.33333333" id="Fill-1382"></path>
                <path d="M18.452381,8.33333333 L10.1190476,8.33333333 C9.79047619,8.33333333 9.52380952,8.6 9.52380952,8.92857143 L9.52380952,14.8809524 C9.52380952,16.3190476 10.547619,17.5202381 11.9047619,17.797619 L11.9047619,24.4047619 C11.9047619,24.7333333 12.1714286,25 12.5,25 L16.0714286,25 C16.4,25 16.6666667,24.7333333 16.6666667,24.4047619 L16.6666667,17.797619 C18.0238095,17.5202381 19.047619,16.3190476 19.047619,14.8809524 L19.047619,8.92857143 C19.047619,8.6 18.7809524,8.33333333 18.452381,8.33333333" id="Fill-1383"></path>
                <path d="M3.57142857,7.14285714 C4.88452381,7.14285714 5.95238095,6.075 5.95238095,4.76190476 C5.95238095,3.44761905 4.88452381,2.38095238 3.57142857,2.38095238 C2.25833333,2.38095238 1.19047619,3.44761905 1.19047619,4.76190476 C1.19047619,6.075 2.25833333,7.14285714 3.57142857,7.14285714" id="Fill-1384"></path>
                <path d="M25,7.14285714 C26.3130952,7.14285714 27.3809524,6.075 27.3809524,4.76190476 C27.3809524,3.44761905 26.3130952,2.38095238 25,2.38095238 C23.6869048,2.38095238 22.6190476,3.44761905 22.6190476,4.76190476 C22.6190476,6.075 23.6869048,7.14285714 25,7.14285714" id="Fill-1385"></path>
                <path d="M14.2857143,7.14285714 C16.2547619,7.14285714 17.8571429,5.54047619 17.8571429,3.57142857 C17.8571429,1.60238095 16.2547619,0 14.2857143,0 C12.3166667,0 10.7142857,1.60238095 10.7142857,3.57142857 C10.7142857,5.54047619 12.3166667,7.14285714 14.2857143,7.14285714" id="Fill-1386"></path>
            </g>
        </g>
    </g>
</svg>