<?xml version="1.0" encoding="UTF-8"?>
<svg width="15px" height="15px" viewBox="0 0 15 15" version="1.1" xmlns="http://www.w3.org/2000/svg" xmlns:xlink="http://www.w3.org/1999/xlink">
    <!-- Generator: Sketch 52.5 (67469) - http://www.bohemiancoding.com/sketch -->
    <title>Fill 1</title>
    <desc>Created with Sketch.</desc>
    <g id="Symbols" stroke="none" stroke-width="1" fill="none" fill-rule="evenodd">
        <g id="AvailabilityDates-NON" transform="translate(-15.000000, -31.000000)" fill="#FFFFFF">
            <path d="M27.6153252,31.0899083 C27.4951215,30.9700306 27.2984052,30.9700306 27.1782016,31.0899083 L22.7186156,35.5493823 C22.5983044,35.6695829 22.401588,35.6695829 22.2813844,35.5493823 L17.8217984,31.0899083 C17.7014872,30.9700306 17.5047708,30.9700306 17.3849977,31.0899083 L15.0898299,33.3845881 C14.9700567,33.5047887 14.9700567,33.7015001 15.0898299,33.8217007 L19.5494158,38.2812823 C19.6697271,38.4014829 19.6697271,38.5981943 19.5494158,38.7183949 L15.0898299,43.1779765 C14.9700567,43.2981771 14.9700567,43.4948885 15.0898299,43.6150891 L17.3845672,45.9097689 C17.5047708,46.030077 17.7014872,46.030077 17.8217984,45.9097689 L22.2813844,41.4502949 C22.401588,41.3300943 22.5983044,41.3300943 22.7186156,41.4502949 L27.1782016,45.9097689 C27.2984052,46.0296466 27.4951215,46.0296466 27.6153252,45.9097689 L29.9101701,43.6150891 C30.0299433,43.4948885 30.0299433,43.2981771 29.9101701,43.1779765 L25.4504765,38.7183949 C25.3302729,38.5981943 25.3302729,38.4014829 25.4504765,38.2812823 L29.9101701,33.8217007 C30.0299433,33.7015001 30.0299433,33.5047887 29.9101701,33.3850185 L27.6153252,31.0899083 Z" id="Fill-1"></path>
        </g>
    </g>
</svg>