<svg xmlns="http://www.w3.org/2000/svg" width="21.999" height="25.213" viewBox="0 0 21.999 25.213"><path d="M-359.444,623.834c3.98.651,7.508-.118,10.391-3.061,2.888,2.941,6.414,3.715,10.4,3.06.025.266.061.531.072.8a25.862,25.862,0,0,1-1.755,11.094,16.379,16.379,0,0,1-8.5,9,.448.448,0,0,1-.42,0,16.4,16.4,0,0,1-8.5-9,23.66,23.66,0,0,1-1.578-6.227,27.935,27.935,0,0,1-.132-5.416C-359.472,624-359.457,623.926-359.444,623.834Zm11.877,4.2h-2.977v3.253h-3.22v2.973h3.241V637.5h2.963v-3.255h3.218v-2.966h-3.225Z" transform="translate(360.052 -620.059)" fill="#fff" stroke="rgba(0,0,0,0)" stroke-width="1"/></svg>