<svg xmlns="http://www.w3.org/2000/svg" width="12" height="12" viewBox="0 0 12 12"><g transform="translate(-889 -4369)"><path d="M893.869,4373.16,890.713,4370h1.3a.5.5,0,1,0,0-1H889.5a.5.5,0,0,0-.5.5v2.508a.5.5,0,1,0,1,0v-1.3l3.157,3.156a.5.5,0,0,0,.709-.709Z" fill="#393d41"/><path d="M903.147,4373.16,906.3,4370h-1.3a.5.5,0,1,1,0-1h2.508a.5.5,0,0,1,.5.5v2.508a.5.5,0,1,1-1,0v-1.3l-3.157,3.156a.5.5,0,0,1-.709-.709Z" transform="translate(-7.016)" fill="#393d41"/><path d="M893.16,4383.146,890,4386.3v-1.3a.5.5,0,0,0-1,0v2.508a.5.5,0,0,0,.5.5h2.508a.5.5,0,0,0,0-1h-1.3l3.157-3.156a.5.5,0,0,0-.709-.71Z" transform="translate(0 -7.016)" fill="#393d41"/><path d="M903.856,4383.146l3.157,3.157v-1.3a.5.5,0,0,1,1,0v2.508a.5.5,0,0,1-.5.5h-2.508a.5.5,0,0,1,0-1h1.3l-3.157-3.156a.5.5,0,0,1,.709-.71Z" transform="translate(-7.016 -7.016)" fill="#393d41"/></g></svg>